<mxfile host="app.diagrams.net" modified="2023-07-03T11:26:46.922Z" agent="Mozilla/5.0 (Windows NT 10.0; Win64; x64) AppleWebKit/537.36 (KHTML, like Gecko) Chrome/114.0.0.0 Safari/537.36" etag="69bqLzpe6GWulWR1zYiQ" version="21.5.2" type="device">
  <diagram id="ZQop6-woorJ8Uy3YZnZl" name="第 1 页">
    <mxGraphModel dx="1434" dy="756" grid="1" gridSize="10" guides="1" tooltips="1" connect="1" arrows="1" fold="1" page="1" pageScale="1" pageWidth="827" pageHeight="1169" math="0" shadow="0">
      <root>
        <mxCell id="0" />
        <mxCell id="1" parent="0" />
        <mxCell id="Jm4W6omXqQ6jUamIUz5n-20" value="" style="edgeStyle=orthogonalEdgeStyle;rounded=0;orthogonalLoop=1;jettySize=auto;html=1;endArrow=none;endFill=0;startArrow=block;startFill=0;dashed=1;" edge="1" parent="1" source="Jm4W6omXqQ6jUamIUz5n-13" target="Jm4W6omXqQ6jUamIUz5n-17">
          <mxGeometry relative="1" as="geometry" />
        </mxCell>
        <mxCell id="Jm4W6omXqQ6jUamIUz5n-25" style="edgeStyle=orthogonalEdgeStyle;rounded=0;orthogonalLoop=1;jettySize=auto;html=1;dashed=1;endArrow=none;endFill=0;startArrow=blockThin;startFill=0;" edge="1" parent="1" source="Jm4W6omXqQ6jUamIUz5n-13" target="Jm4W6omXqQ6jUamIUz5n-22">
          <mxGeometry relative="1" as="geometry" />
        </mxCell>
        <mxCell id="Jm4W6omXqQ6jUamIUz5n-13" value="&amp;lt;&amp;lt;interface&amp;gt;&amp;gt;&lt;br style=&quot;border-color: var(--border-color); font-weight: 700;&quot;&gt;&lt;span style=&quot;font-weight: 700;&quot;&gt;ThemeSource&lt;/span&gt;" style="swimlane;fontStyle=0;childLayout=stackLayout;horizontal=1;startSize=26;fillColor=none;horizontalStack=0;resizeParent=1;resizeParentMax=0;resizeLast=0;collapsible=1;marginBottom=0;whiteSpace=wrap;html=1;" vertex="1" parent="1">
          <mxGeometry x="394" y="150" width="140" height="78" as="geometry" />
        </mxCell>
        <mxCell id="Jm4W6omXqQ6jUamIUz5n-14" value="+ textBlack: int" style="text;strokeColor=none;fillColor=none;align=left;verticalAlign=top;spacingLeft=4;spacingRight=4;overflow=hidden;rotatable=0;points=[[0,0.5],[1,0.5]];portConstraint=eastwest;whiteSpace=wrap;html=1;" vertex="1" parent="Jm4W6omXqQ6jUamIUz5n-13">
          <mxGeometry y="26" width="140" height="26" as="geometry" />
        </mxCell>
        <mxCell id="Jm4W6omXqQ6jUamIUz5n-15" value="+ textWhite: int" style="text;strokeColor=none;fillColor=none;align=left;verticalAlign=top;spacingLeft=4;spacingRight=4;overflow=hidden;rotatable=0;points=[[0,0.5],[1,0.5]];portConstraint=eastwest;whiteSpace=wrap;html=1;" vertex="1" parent="Jm4W6omXqQ6jUamIUz5n-13">
          <mxGeometry y="52" width="140" height="26" as="geometry" />
        </mxCell>
        <mxCell id="Jm4W6omXqQ6jUamIUz5n-17" value="&lt;span style=&quot;font-weight: 700;&quot;&gt;ThemeSourceDark&lt;br&gt;&lt;/span&gt;" style="swimlane;fontStyle=0;childLayout=stackLayout;horizontal=1;startSize=26;fillColor=none;horizontalStack=0;resizeParent=1;resizeParentMax=0;resizeLast=0;collapsible=1;marginBottom=0;whiteSpace=wrap;html=1;" vertex="1" parent="1">
          <mxGeometry x="310" y="308" width="140" height="78" as="geometry" />
        </mxCell>
        <mxCell id="Jm4W6omXqQ6jUamIUz5n-18" value="+ textBlack: int" style="text;strokeColor=none;fillColor=none;align=left;verticalAlign=top;spacingLeft=4;spacingRight=4;overflow=hidden;rotatable=0;points=[[0,0.5],[1,0.5]];portConstraint=eastwest;whiteSpace=wrap;html=1;" vertex="1" parent="Jm4W6omXqQ6jUamIUz5n-17">
          <mxGeometry y="26" width="140" height="26" as="geometry" />
        </mxCell>
        <mxCell id="Jm4W6omXqQ6jUamIUz5n-19" value="+ textWhite: int" style="text;strokeColor=none;fillColor=none;align=left;verticalAlign=top;spacingLeft=4;spacingRight=4;overflow=hidden;rotatable=0;points=[[0,0.5],[1,0.5]];portConstraint=eastwest;whiteSpace=wrap;html=1;" vertex="1" parent="Jm4W6omXqQ6jUamIUz5n-17">
          <mxGeometry y="52" width="140" height="26" as="geometry" />
        </mxCell>
        <mxCell id="Jm4W6omXqQ6jUamIUz5n-22" value="&lt;span style=&quot;font-weight: 700;&quot;&gt;ThemeSourceLight&lt;br&gt;&lt;/span&gt;" style="swimlane;fontStyle=0;childLayout=stackLayout;horizontal=1;startSize=26;fillColor=none;horizontalStack=0;resizeParent=1;resizeParentMax=0;resizeLast=0;collapsible=1;marginBottom=0;whiteSpace=wrap;html=1;" vertex="1" parent="1">
          <mxGeometry x="510" y="308" width="140" height="78" as="geometry" />
        </mxCell>
        <mxCell id="Jm4W6omXqQ6jUamIUz5n-23" value="+ textBlack: int" style="text;strokeColor=none;fillColor=none;align=left;verticalAlign=top;spacingLeft=4;spacingRight=4;overflow=hidden;rotatable=0;points=[[0,0.5],[1,0.5]];portConstraint=eastwest;whiteSpace=wrap;html=1;" vertex="1" parent="Jm4W6omXqQ6jUamIUz5n-22">
          <mxGeometry y="26" width="140" height="26" as="geometry" />
        </mxCell>
        <mxCell id="Jm4W6omXqQ6jUamIUz5n-24" value="+ textWhite: int" style="text;strokeColor=none;fillColor=none;align=left;verticalAlign=top;spacingLeft=4;spacingRight=4;overflow=hidden;rotatable=0;points=[[0,0.5],[1,0.5]];portConstraint=eastwest;whiteSpace=wrap;html=1;" vertex="1" parent="Jm4W6omXqQ6jUamIUz5n-22">
          <mxGeometry y="52" width="140" height="26" as="geometry" />
        </mxCell>
        <mxCell id="Jm4W6omXqQ6jUamIUz5n-30" style="edgeStyle=orthogonalEdgeStyle;rounded=0;orthogonalLoop=1;jettySize=auto;html=1;exitX=0.5;exitY=0;exitDx=0;exitDy=0;" edge="1" parent="1" source="Jm4W6omXqQ6jUamIUz5n-26" target="Jm4W6omXqQ6jUamIUz5n-17">
          <mxGeometry relative="1" as="geometry" />
        </mxCell>
        <mxCell id="Jm4W6omXqQ6jUamIUz5n-31" style="edgeStyle=orthogonalEdgeStyle;rounded=0;orthogonalLoop=1;jettySize=auto;html=1;exitX=0.5;exitY=0;exitDx=0;exitDy=0;" edge="1" parent="1" source="Jm4W6omXqQ6jUamIUz5n-26" target="Jm4W6omXqQ6jUamIUz5n-22">
          <mxGeometry relative="1" as="geometry" />
        </mxCell>
        <mxCell id="Jm4W6omXqQ6jUamIUz5n-26" value="ThemeSource" style="swimlane;fontStyle=1;align=center;verticalAlign=top;childLayout=stackLayout;horizontal=1;startSize=26;horizontalStack=0;resizeParent=1;resizeParentMax=0;resizeLast=0;collapsible=1;marginBottom=0;whiteSpace=wrap;html=1;" vertex="1" parent="1">
          <mxGeometry x="400" y="500" width="160" height="60" as="geometry" />
        </mxCell>
        <mxCell id="Jm4W6omXqQ6jUamIUz5n-28" value="" style="line;strokeWidth=1;fillColor=none;align=left;verticalAlign=middle;spacingTop=-1;spacingLeft=3;spacingRight=3;rotatable=0;labelPosition=right;points=[];portConstraint=eastwest;strokeColor=inherit;" vertex="1" parent="Jm4W6omXqQ6jUamIUz5n-26">
          <mxGeometry y="26" width="160" height="8" as="geometry" />
        </mxCell>
        <mxCell id="Jm4W6omXqQ6jUamIUz5n-29" value="+ setThemeSource()" style="text;strokeColor=none;fillColor=none;align=left;verticalAlign=top;spacingLeft=4;spacingRight=4;overflow=hidden;rotatable=0;points=[[0,0.5],[1,0.5]];portConstraint=eastwest;whiteSpace=wrap;html=1;" vertex="1" parent="Jm4W6omXqQ6jUamIUz5n-26">
          <mxGeometry y="34" width="160" height="26" as="geometry" />
        </mxCell>
      </root>
    </mxGraphModel>
  </diagram>
</mxfile>
